<?xml version="1.0" standalone="no"?>
<!DOCTYPE svg PUBLIC "-//W3C//DTD SVG 20010904//EN"
 "http://www.w3.org/TR/2001/REC-SVG-20010904/DTD/svg10.dtd">
<svg version="1.0" xmlns="http://www.w3.org/2000/svg"
 width="260.000000pt" height="260.000000pt" viewBox="0 0 260.000000 260.000000"
 preserveAspectRatio="xMidYMid meet">
<metadata>
Created by potrace 1.14, written by Peter Selinger 2001-2017
</metadata>
<g transform="translate(0.000000,260.000000) scale(0.100000,-0.100000)"
fill="#000000" stroke="none">
<path d="M1199 2335 c0 -5 -2 -109 -2 -230 -2 -201 -4 -220 -19 -223 -20 -4
-19 -17 -19 240 0 109 -4 170 -11 174 -23 14 -33 -25 -32 -125 0 -69 -3 -105
-12 -112 -21 -17 -27 8 -27 111 1 89 -1 97 -17 93 -10 -3 -27 -12 -37 -22 -10
-9 -28 -23 -40 -32 -33 -23 -101 -109 -124 -159 -28 -59 -49 -136 -49 -182 l0
-38 490 0 490 0 0 38 c0 82 -45 196 -107 273 -33 40 -126 118 -152 127 -5 2
-8 -38 -7 -88 1 -104 -7 -139 -28 -121 -10 8 -13 37 -12 109 2 100 -5 132 -28
132 -11 0 -13 -38 -14 -187 -1 -253 1 -235 -19 -231 -16 3 -18 23 -20 228 0
124 -2 227 -2 230 -2 10 -201 5 -202 -5z"/>
<path d="M754 1775 c-16 -40 -2 -44 188 -47 163 -3 188 -5 227 -24 43 -21 47
-21 88 -6 37 14 48 14 76 3 41 -17 70 -15 110 6 26 15 66 19 217 23 171 5 185
6 188 24 2 10 -2 22 -10 27 -7 5 -253 9 -546 9 -464 0 -533 -2 -538 -15z"/>
<path d="M945 1658 c-78 -28 -134 -104 -136 -188 -2 -84 39 -151 115 -186 84
-39 164 -26 229 39 47 47 59 77 58 144 -1 139 -137 236 -266 191z m145 -67
c41 -29 70 -80 70 -124 0 -125 -143 -196 -239 -119 -69 56 -78 150 -21 216 49
55 134 67 190 27z"/>
<path d="M954 1580 c-31 -12 -64 -59 -64 -89 0 -24 2 -23 23 14 14 26 37 48
67 63 35 18 39 22 20 21 -14 0 -35 -4 -46 -9z"/>
<path d="M1527 1660 c-16 -5 -44 -20 -63 -35 -146 -111 -70 -352 113 -361 86
-4 157 37 193 111 78 161 -71 336 -243 285z m153 -79 c146 -116 -11 -338 -172
-243 -34 20 -68 86 -68 133 0 35 30 94 59 116 49 38 128 36 181 -6z"/>
<path d="M1504 1556 c-24 -24 -34 -43 -33 -62 0 -17 3 -22 6 -14 13 34 47 72
81 90 l37 19 -28 1 c-20 0 -40 -11 -63 -34z"/>
<path d="M1262 1633 c-21 -40 28 -86 61 -59 37 29 23 76 -23 76 -18 0 -33 -7
-38 -17z"/>
<path d="M700 1511 c-25 -15 -146 -83 -270 -151 -338 -185 -369 -209 -377
-300 -6 -64 28 -124 98 -172 30 -20 57 -37 61 -37 11 -1 481 -273 510 -295 32
-25 61 -106 79 -222 l12 -79 483 0 c265 0 485 3 488 5 3 3 8 28 12 55 13 103
44 199 72 228 15 16 63 49 107 73 44 25 87 49 95 54 8 5 103 60 210 121 107
62 207 125 223 142 46 51 58 119 32 181 -20 48 -73 85 -295 207 -102 56 -231
128 -287 160 -56 33 -104 59 -106 59 -3 0 -1 -15 2 -32 9 -43 -3 -116 -27
-165 l-19 -40 134 -114 c73 -63 133 -117 133 -121 0 -6 -78 -53 -160 -95 -101
-51 -267 -58 -333 -13 -38 26 -67 73 -72 118 -2 19 8 39 36 71 22 24 37 46 34
49 -3 3 -19 7 -35 9 -101 11 -209 129 -213 233 -3 59 -49 64 -53 5 -3 -41 -24
-102 -47 -133 -36 -48 -75 -75 -144 -98 l-62 -21 40 -47 c31 -38 38 -53 33
-75 -13 -56 -41 -95 -85 -118 -39 -21 -55 -23 -134 -20 -51 2 -112 12 -140 22
-51 18 -205 103 -205 114 0 3 13 17 29 31 17 14 77 65 134 115 l104 89 -19 37
c-23 45 -36 123 -27 167 3 17 4 32 0 32 -3 0 -26 -13 -51 -29z m663 -280 c10
-1 17 -9 17 -20 0 -26 -55 -80 -77 -76 -10 2 -22 4 -26 4 -15 2 -57 54 -57 72
0 25 15 27 143 20z"/>
</g>
</svg>
